<svg width="32" height="32" viewBox="0 0 32 32" fill="none" xmlns="http://www.w3.org/2000/svg">
<g clip-path="url(#clip0_467_1213)">
<path d="M19.8096 32H12.1904V30.4697H19.8096V32Z" fill="#395C06"/>
<path d="M12.1904 30.4697H9.13965V28.9502H12.1904V30.4697Z" fill="#395C06"/>
<path d="M22.8604 30.4697H19.8096L19.8105 28.9502H22.8604V30.4697Z" fill="#395C06"/>
<path d="M9.13965 28.9502H6.09961V27.4199H9.13965V28.9502Z" fill="#395C06"/>
<path d="M25.9102 28.9502H22.8604V27.4199H25.9102V28.9502Z" fill="#395C06"/>
<path d="M6.09961 27.4199H4.57031V25.9004H6.09961V27.4199Z" fill="#395C06"/>
<path d="M27.4297 27.4199H25.9102V25.9004H27.4297V27.4199Z" fill="#395C06"/>
<path d="M4.57031 25.9004H3.0498V22.8496H4.57031V25.9004Z" fill="#395C06"/>
<path d="M28.9502 25.9004H27.4297V22.8496H28.9502V25.9004Z" fill="#395C06"/>
<path d="M10 24.4004H7.59961V22H10V24.4004Z" fill="#395C06"/>
<path d="M24.4004 24.4004H22V22H24.4004V24.4004Z" fill="#395C06"/>
<path d="M3.0498 22.8496H1.53027V19.8096H3.0498V22.8496Z" fill="#395C06"/>
<path d="M30.4795 22.8496H28.9502V19.8096H30.4795V22.8496Z" fill="#395C06"/>
<path d="M12.4004 22H10V19.5996H12.4004V22Z" fill="#395C06"/>
<path d="M22 22H19.5996V19.5996H22V22Z" fill="#395C06"/>
<path d="M1.53027 19.8096H0V12.1904H1.53027V19.8096Z" fill="#395C06"/>
<path d="M32 19.8096H30.4795L30.4805 12.1904H32V19.8096Z" fill="#395C06"/>
<path d="M14.7998 19.5996H12.4004V17.2002H14.7998V19.5996Z" fill="#395C06"/>
<path d="M19.5996 19.5996H17.2002V17.2002H19.5996V19.5996Z" fill="#395C06"/>
<path d="M17.2002 17.2002H14.7998V14.7998H17.2002V17.2002Z" fill="#395C06"/>
<path d="M14.7998 14.7998H12.4004V12.4004H14.7998V14.7998Z" fill="#395C06"/>
<path d="M19.5996 14.7998H17.2002V12.4004H19.5996V14.7998Z" fill="#395C06"/>
<path d="M12.4004 12.4004H10V10H12.4004V12.4004Z" fill="#395C06"/>
<path d="M22 12.4004H19.5996V10H22V12.4004Z" fill="#395C06"/>
<path d="M3.0498 12.1904H1.53027V9.13965H3.0498V12.1904Z" fill="#395C06"/>
<path d="M30.4805 12.1904H28.9502V9.13965H30.4805V12.1904Z" fill="#395C06"/>
<path d="M10 10H7.59961V7.59961H10V10Z" fill="#395C06"/>
<path d="M24.4004 10H22V7.59961H24.4004V10Z" fill="#395C06"/>
<path d="M4.57031 9.13965H3.0498V6.08984H4.57031V9.13965Z" fill="#395C06"/>
<path d="M28.9502 9.13965H27.4297V6.08984H28.9502V9.13965Z" fill="#395C06"/>
<path d="M6.09961 6.08984H4.57031V4.57031H6.09961V6.08984Z" fill="#395C06"/>
<path d="M27.4297 6.08984H25.9102V4.57031H27.4297V6.08984Z" fill="#395C06"/>
<path d="M9.13965 4.57031H6.09961V3.04004H9.13965V4.57031Z" fill="#395C06"/>
<path d="M25.9102 4.57031H22.8604V3.04004H25.9102V4.57031Z" fill="#395C06"/>
<path d="M12.1904 3.04004H9.13965V1.51953H12.1904V3.04004Z" fill="#395C06"/>
<path d="M22.8604 3.04004H19.8105V1.51953H22.8604V3.04004Z" fill="#395C06"/>
<path d="M19.8105 1.51953H12.1904V0H19.8096L19.8105 1.51953Z" fill="#395C06"/>
</g>
<defs>
<clipPath id="clip0_467_1213">
<rect width="32" height="32" fill="white"/>
</clipPath>
</defs>
</svg>
