<svg width="20" height="20" viewBox="0 0 20 20" fill="none" xmlns="http://www.w3.org/2000/svg">
<path d="M7.5 17.5H17.5V18.75H2.5V17.5H6.25V16.25H7.5V17.5Z" fill="#500F0B"/>
<path d="M2.5 17.5H1.25V16.25H2.5V17.5Z" fill="#500F0B"/>
<path d="M18.75 17.5H17.5V16.25H18.75V17.5Z" fill="#500F0B"/>
<path d="M1.25 12.5H2.5V13.75H1.25V16.25H0V3.75H1.25V12.5Z" fill="#500F0B"/>
<path d="M8.75 16.25H7.5V15H8.75V16.25Z" fill="#500F0B"/>
<path d="M20 16.25H18.75V11.25H15.625V10H18.75V3.75H20V16.25Z" fill="#500F0B"/>
<path d="M10 15H8.75V13.75H10V15Z" fill="#500F0B"/>
<path d="M13.125 10H14.375V11.25H15.625V12.5H12.5V13.75H10V12.5H7.5V11.25H10V10H11.25V8.75H13.125V10Z" fill="#500F0B"/>
<path d="M3.75 12.5H2.5V11.25H3.75V12.5Z" fill="#500F0B"/>
<path d="M7.5 11.25H3.75V10H7.5V11.25Z" fill="#500F0B"/>
<path d="M10 8.75H8.75V7.5H10V8.75Z" fill="#500F0B"/>
<path d="M15.625 8.75H14.375V7.5H15.625V8.75Z" fill="#500F0B"/>
<path d="M12.8125 8.125H11.5625V5H12.8125V8.125Z" fill="#500F0B"/>
<path d="M8.75 7.5H7.5V6.25H8.75V7.5Z" fill="#500F0B"/>
<path d="M16.875 7.5H15.625V6.25H16.875V7.5Z" fill="#500F0B"/>
<path d="M2.5 3.75H1.25V2.5H2.5V3.75Z" fill="#500F0B"/>
<path d="M18.75 3.75H17.5V2.5H18.75V3.75Z" fill="#500F0B"/>
<path d="M17.5 2.5H2.5V1.25H17.5V2.5Z" fill="#500F0B"/>
</svg>
