<svg width="20" height="20" viewBox="0 0 20 20" fill="none" xmlns="http://www.w3.org/2000/svg">
<path d="M17.5 18.75H2.5V17.5H17.5V18.75Z" fill="#500F0B"/>
<path d="M2.5 17.5H1.25V16.25H2.5V17.5Z" fill="#500F0B"/>
<path d="M18.75 17.5H17.5V16.25H18.75V17.5Z" fill="#500F0B"/>
<path d="M1.25 16.25H0V3.75H1.25V16.25Z" fill="#500F0B"/>
<path d="M20 16.25H18.75V3.75H20V16.25Z" fill="#500F0B"/>
<path d="M8.125 5H9.375V6.25H10.625V6.875H11.875V8.125H13.125V8.75H14.375V9.375H15V10.625H14.375V11.25H13.125V11.875H11.875V13.125H10.625V13.75H9.375V15H8.125V15.625H6.875V4.375H8.125V5Z" fill="#500F0B"/>
<path d="M2.5 3.75H1.25V2.5H2.5V3.75Z" fill="#500F0B"/>
<path d="M18.75 3.75H17.5V2.5H18.75V3.75Z" fill="#500F0B"/>
<path d="M17.5 2.5H2.5V1.25H17.5V2.5Z" fill="#500F0B"/>
</svg>
