<svg width="32" height="32" viewBox="0 0 32 32" fill="none" xmlns="http://www.w3.org/2000/svg">
<rect width="32" height="32" rx="8" fill="url(#paint0_linear_895_1543)"/>
<path d="M14.346 17.7485C14.4726 19.6145 15.9916 19.6678 15.9916 19.6678C16.9645 19.7567 17.4383 18.9534 17.4383 18.9534C17.8036 18.1857 17.2611 17.6169 17.2611 17.6169C17.7204 18.6513 17.0368 19.0743 17.0368 19.0743C16.903 19.1453 16.7583 19.2058 16.6101 19.2413C16.563 19.252 16.5196 19.2626 16.4726 19.2698C16.0965 19.3231 15.6987 19.2022 15.4346 18.9356C15.2538 18.7544 15.1561 18.5091 15.1127 18.2567C14.8198 18.0719 14.5666 17.8693 14.346 17.6632C14.346 17.6916 14.346 17.7236 14.346 17.752V17.7485Z" fill="#E7F7F9"/>
<path d="M18.2554 19.1988C18.2482 19.2308 18.2373 19.2663 18.2229 19.2877C18.0348 19.572 17.825 19.7924 17.608 19.963C17.7021 20.0483 18.2012 20.4784 18.9715 20.8054C19.6189 20.0377 19.7527 19.2841 19.7744 18.8789C19.1704 19.0993 18.6207 19.1739 18.2518 19.1953L18.2554 19.1988Z" fill="#E7F7F9"/>
<path d="M16.5848 14.2409C17.7458 14.1201 18.7476 14.5608 19.2829 14.8629C19.8688 14.6212 20.4439 14.5324 20.9357 14.5146C21.7639 14.4862 22.4656 14.6497 22.8417 14.7634C21.6446 13.1781 19.905 12.3357 19.905 12.3357C19.5614 12.2007 19.2214 12.1011 18.8959 12.0229C18.5957 12.1758 18.0098 12.517 17.4565 13.068C17.0912 13.4305 16.8018 13.8215 16.5885 14.2374L16.5848 14.2409Z" fill="#E7F7F9"/>
<path d="M20.0785 24.2216C19.5794 24.1043 19.1454 23.9301 18.809 23.7666C18.158 24.1647 17.431 24.4633 16.6788 24.6481C16.7764 24.8009 16.8885 24.9538 17.0115 25.1066C17.6263 25.8637 18.3822 26.3613 19.2683 26.5995C20.762 25.917 21.7928 24.9644 22.4583 24.1718C22.0134 24.3033 21.5866 24.3531 21.1888 24.3531C20.791 24.3531 20.404 24.2998 20.0785 24.2251V24.2216Z" fill="#E7F7F9"/>
<path d="M13.8829 19.4054C13.5755 18.9718 13.4164 18.5168 13.3477 18.1187C13.25 17.55 13.3477 17.0275 13.4996 16.601C13.1921 16.0714 13.0294 15.5489 12.9462 15.1081C12.8196 14.4435 12.8486 13.8748 12.8883 13.5442C11.0221 15.3534 11.1451 17.447 11.1451 17.447C11.1451 17.5714 11.1559 17.6922 11.1668 17.8095C11.1921 17.8415 11.2174 17.8735 11.2464 17.9019C11.9552 18.7123 12.8377 19.2135 13.8829 19.4054V19.4054Z" fill="#E7F7F9"/>
<path d="M20.9355 14.7015C20.4147 14.7193 19.93 14.8117 19.4816 14.9788C19.6154 15.0641 19.6913 15.1209 19.6913 15.1209C20.4472 15.8354 20.9246 16.564 21.2031 17.2678C22.5919 17.3744 23.5467 17.9609 24.1833 18.6043C24.0929 17.4811 23.8108 16.724 23.8108 16.724C23.6516 16.0913 23.3695 15.5261 23.0295 15.025C22.8342 14.9539 21.9807 14.666 20.9355 14.7015V14.7015Z" fill="#E7F7F9"/>
<path d="M24.245 18.8969C23.4927 18.051 22.5126 17.5711 21.3155 17.4609C21.8001 18.8614 21.5252 20.1552 21.1491 21.0722C21.2359 21.0722 21.3227 21.0651 21.4095 21.058C22.5415 20.9727 23.4891 20.5426 24.2378 19.7784C24.2559 19.4692 24.2559 19.1706 24.2414 18.8934L24.245 18.8969Z" fill="#E7F7F9"/>
<path d="M13.1343 15.0829C13.2247 15.5521 13.373 15.9857 13.5864 16.3803C13.8142 15.8578 14.0999 15.5272 14.0999 15.5272C14.8703 14.7524 15.666 14.3898 16.4074 14.269C16.675 13.7109 17.0295 13.2702 17.3658 12.9325C17.836 12.4669 18.317 12.1505 18.6498 11.9621C16.0493 11.4681 14.1361 12.5842 14.1361 12.5842C13.7455 12.8223 13.4055 13.0747 13.109 13.3377C13.0728 13.5296 12.9715 14.2299 13.1343 15.0794V15.0829Z" fill="#E7F7F9"/>
<path d="M7.20666 18.8008C7.34047 18.6729 7.47429 18.5556 7.60811 18.4525C7.36579 17.276 7.37302 16.0568 7.56471 14.8732C7.65513 14.3222 7.77086 13.7642 7.96978 13.2381C10.5593 6.34253 18.4582 6.19325 18.4582 6.19325C23.9628 6.00842 27.5 9.23584 27.5 9.23584C24.2232 5.36151 18.8163 5.04517 18.8163 5.04517C13.1489 4.56887 9.28988 8.01667 9.28988 8.01667C4.86304 11.5427 5.00047 16.8103 5.00047 16.8103C5.04387 18.4738 5.41639 19.8991 5.90826 21.0685C6.1325 20.0449 6.68585 19.302 7.20666 18.8008V18.8008Z" fill="#E7F7F9"/>
<path d="M14.7946 24.8509C14.1219 24.8331 13.4601 24.7194 12.8308 24.4954C11.8506 24.1471 10.9826 23.5428 10.2051 22.871C8.92474 21.7621 8.03142 20.2976 7.65528 18.6626C7.5504 18.7479 7.4419 18.8403 7.33701 18.9434C6.61367 19.6401 6.17967 20.454 6.04224 21.3746C7.11278 23.7277 8.61732 24.9646 8.61732 24.9646C9.63723 25.9314 10.7331 26.5321 11.7385 26.9053C12.0749 26.8307 12.4727 26.7134 12.8742 26.525C13.7169 26.1376 14.357 25.576 14.7946 24.8509V24.8509Z" fill="#E7F7F9"/>
<path d="M14.932 20.3463C14.5631 20.1331 14.2773 19.8842 14.0531 19.6212C12.6932 19.4222 11.7782 18.7504 11.2104 18.1426C11.6155 20.7906 13.7999 21.825 13.7999 21.825C14.0133 21.9245 14.2231 22.0062 14.4256 22.0702C14.6354 21.8285 15.073 21.2563 15.3515 20.4601C15.0911 20.4103 14.932 20.3463 14.932 20.3463Z" fill="#E7F7F9"/>
<path d="M16.856 25.2167C16.7113 25.039 16.5884 24.8648 16.4798 24.6907C15.9952 24.7938 15.4997 24.8506 15.0079 24.8506C14.4473 25.821 13.6371 26.379 12.9463 26.6954C12.6353 26.8375 12.3351 26.9406 12.0602 27.0153C13.8831 27.6195 15.3261 27.488 15.3261 27.488C16.7728 27.4382 17.9916 27.1361 19.0079 26.7096C18.0025 26.3861 17.3081 25.7748 16.856 25.2167V25.2167Z" fill="#E7F7F9"/>
<path d="M17.4891 20.0553C17.1346 20.3041 16.7621 20.4285 16.4185 20.4818C16.4909 20.7484 16.6898 21.3847 17.1455 22.0387C17.8326 21.8112 18.2449 21.4949 18.2449 21.4949C18.48 21.3171 18.6753 21.1359 18.8453 20.9546C17.9954 20.5849 17.4891 20.1051 17.4637 20.0802L17.4927 20.0518L17.4891 20.0553Z" fill="#E7F7F9"/>
<path d="M15.5431 20.4897C15.2755 21.2717 14.8632 21.844 14.6245 22.1283C15.5286 22.3665 16.3351 22.2776 16.9536 22.0999C16.487 21.4139 16.2917 20.7705 16.2266 20.5075C15.9735 20.5288 15.742 20.5182 15.5431 20.4897Z" fill="#E7F7F9"/>
<path d="M18.0276 17.256C18.3025 17.6435 18.3821 18.1304 18.3495 18.5925C18.3423 18.7311 18.3206 18.8697 18.2953 19.0084C18.6605 18.9799 19.1994 18.9017 19.7781 18.6814C19.7781 18.6138 19.7709 18.5783 19.7709 18.5783C19.7455 17.0499 18.5014 16.076 18.5014 16.076C18.3821 15.9835 18.2627 15.8982 18.1397 15.8271C17.8649 16.0795 17.6117 16.3745 17.3839 16.7122C17.3983 16.7193 17.4128 16.7264 17.4273 16.7335C17.6623 16.8579 17.8721 17.0357 18.0276 17.2525V17.256Z" fill="#E7F7F9"/>
<path d="M16.9789 16.5551C17.0549 16.5765 17.1345 16.6049 17.2068 16.6333C17.4455 16.2815 17.6987 15.9864 17.9663 15.7376C17.8506 15.6843 17.7276 15.6417 17.5974 15.6097C17.337 15.5457 17.0657 15.5172 16.7945 15.5208C16.5956 15.5208 16.4003 15.5457 16.2122 15.5883C16.1688 15.9118 16.1652 16.2459 16.1941 16.5942C16.2267 16.5871 16.2556 16.58 16.2881 16.5729C16.5088 16.5303 16.7619 16.4912 16.9826 16.5551H16.9789Z" fill="#E7F7F9"/>
<path d="M21.0694 21.2654C20.7439 21.9905 20.3822 22.4348 20.3822 22.4348C20.205 22.6551 19.9952 22.8542 19.7854 23.0426C19.5395 23.2629 19.2755 23.4656 18.997 23.6468C19.308 23.7926 19.6914 23.9418 20.1254 24.0414C21.0224 24.2475 21.8723 24.2013 22.668 23.9099C23.2068 23.2167 23.4383 22.7014 23.4383 22.7014C23.9157 21.8056 24.1363 20.8921 24.2159 20.064C23.29 20.917 22.2376 21.1907 21.4166 21.2511C21.2972 21.2583 21.1815 21.2654 21.0658 21.2654H21.0694Z" fill="#E7F7F9"/>
<path d="M15.1054 17.6695C15.1741 17.1505 15.5394 16.8093 16.0059 16.6493C15.9734 16.2904 15.977 15.9562 16.0168 15.6399C15.4634 15.8105 14.9824 16.1588 14.6641 16.6671C14.5267 16.8875 14.4146 17.1541 14.3676 17.4207C14.5809 17.6339 14.8233 17.8294 15.0909 18.0107C15.0873 17.8934 15.0909 17.7797 15.109 17.6695H15.1054Z" fill="#E7F7F9"/>
<defs>
<linearGradient id="paint0_linear_895_1543" x1="6.4" y1="3.2" x2="26" y2="32" gradientUnits="userSpaceOnUse">
<stop stop-color="#53BFCC"/>
<stop offset="1" stop-color="#208C9A"/>
</linearGradient>
</defs>
</svg>
