<svg width="32" height="32" viewBox="0 0 32 32" fill="none" xmlns="http://www.w3.org/2000/svg">
<g clip-path="url(#clip0_434_1146)">
<rect width="32" height="32" rx="8" fill="white"/>
<rect width="32" height="32" fill="#348F41"/>
<rect width="32" height="32" fill="url(#paint0_radial_434_1146)" fill-opacity="0.2"/>
<g filter="url(#filter0_di_434_1146)">
<path d="M22.792 9.9668C26.5626 9.96701 29.4169 13.3747 28.7559 17.0869C28.2411 19.9773 25.7279 22.0828 22.792 22.083H15.75L16.0459 20.4229H22.7568C24.7824 20.4229 26.5458 19.0395 27.0283 17.0723C27.708 14.3011 25.6102 11.626 22.7568 11.626H17.6123L17.9072 9.9668L22.792 9.9668Z" fill="#EAFCCF"/>
<path d="M3.24396 14.963C3.75872 12.0724 6.27216 9.96704 9.20823 9.96704L16.2499 9.96704L14.0922 22.0833H9.20823C5.43745 22.0833 2.58285 18.6754 3.24396 14.963Z" fill="#EAFCCF"/>
</g>
</g>
<defs>
<filter id="filter0_di_434_1146" x="0.000896692" y="9.9668" width="31.9982" height="18.4115" filterUnits="userSpaceOnUse" color-interpolation-filters="sRGB">
<feFlood flood-opacity="0" result="BackgroundImageFix"/>
<feColorMatrix in="SourceAlpha" type="matrix" values="0 0 0 0 0 0 0 0 0 0 0 0 0 0 0 0 0 0 127 0" result="hardAlpha"/>
<feOffset dy="3.14754"/>
<feGaussianBlur stdDeviation="1.57377"/>
<feComposite in2="hardAlpha" operator="out"/>
<feColorMatrix type="matrix" values="0 0 0 0 0 0 0 0 0 0 0 0 0 0 0 0 0 0 0.4 0"/>
<feBlend mode="normal" in2="BackgroundImageFix" result="effect1_dropShadow_434_1146"/>
<feBlend mode="normal" in="SourceGraphic" in2="effect1_dropShadow_434_1146" result="shape"/>
<feColorMatrix in="SourceAlpha" type="matrix" values="0 0 0 0 0 0 0 0 0 0 0 0 0 0 0 0 0 0 127 0" result="hardAlpha"/>
<feOffset dy="1.0625"/>
<feGaussianBlur stdDeviation="0.4375"/>
<feComposite in2="hardAlpha" operator="arithmetic" k2="-1" k3="1"/>
<feColorMatrix type="matrix" values="0 0 0 0 1 0 0 0 0 1 0 0 0 0 1 0 0 0 0.7 0"/>
<feBlend mode="normal" in2="shape" result="effect2_innerShadow_434_1146"/>
</filter>
<radialGradient id="paint0_radial_434_1146" cx="0" cy="0" r="1" gradientUnits="userSpaceOnUse" gradientTransform="translate(16 -0.015625) rotate(90) scale(32.0156)">
<stop stop-opacity="0"/>
<stop offset="1"/>
</radialGradient>
<clipPath id="clip0_434_1146">
<rect width="32" height="32" rx="8" fill="white"/>
</clipPath>
</defs>
</svg>
