<svg width="20" height="20" viewBox="0 0 20 20" fill="none" xmlns="http://www.w3.org/2000/svg">
<g clip-path="url(#clip0_975_3349)">
<path d="M19.0508 8.57471H20.0008V11.431H19.0508V8.57471Z" fill="#500F0B"/>
<path d="M18.0938 11.4312H19.05V12.3812H18.0938V11.4312Z" fill="#500F0B"/>
<path d="M18.0938 7.61865H19.05V8.5749H18.0938V7.61865Z" fill="#500F0B"/>
<path d="M17.1445 12.3813H18.0945V13.3376H17.1445V12.3813Z" fill="#500F0B"/>
<path d="M17.1445 6.66895H18.0945V7.61895H17.1445V6.66895Z" fill="#500F0B"/>
<path d="M15.2383 13.3374H17.1445V14.2874H15.2383V13.3374Z" fill="#500F0B"/>
<path d="M15.2383 5.71875H17.1445V6.66875H15.2383V5.71875Z" fill="#500F0B"/>
<path d="M13.3359 14.2876H15.2359V15.2376H13.3359V14.2876Z" fill="#500F0B"/>
<path d="M13.3359 4.7627H15.2359V5.71895H13.3359V4.7627Z" fill="#500F0B"/>
<path d="M13.3375 7.61875H12.3813V6.66875H11.4312V5.71875H8.575V6.66875H7.61875V7.61875H6.66875V8.575H5.71875V11.4312H6.66875V12.3813H7.61875V13.3375H8.575V14.2875H11.4312V13.3375H12.3813V12.3813H13.3375V11.4312H14.2875V8.575H13.3375V7.61875ZM11.4312 10.4813H10.475V11.4312H9.525V10.4813H8.575V9.525H9.525V8.575H10.475V9.525H11.4312V10.4813Z" fill="#500F0B"/>
<path d="M6.66797 15.2373H13.3367V16.1936H6.66797V15.2373Z" fill="#500F0B"/>
<path d="M6.66797 3.8125H13.3367V4.7625H6.66797V3.8125Z" fill="#500F0B"/>
<path d="M4.76172 14.2876H6.66797V15.2376H4.76172V14.2876Z" fill="#500F0B"/>
<path d="M4.76172 4.7627H6.66797V5.71895H4.76172V4.7627Z" fill="#500F0B"/>
<path d="M2.85547 13.3374H4.76172V14.2874H2.85547V13.3374Z" fill="#500F0B"/>
<path d="M2.85547 5.71875H4.76172V6.66875H2.85547V5.71875Z" fill="#500F0B"/>
<path d="M1.90625 12.3813H2.85625V13.3376H1.90625V12.3813Z" fill="#500F0B"/>
<path d="M1.90625 6.66895H2.85625V7.61895H1.90625V6.66895Z" fill="#500F0B"/>
<path d="M0.957031 11.4312H1.90703V12.3812H0.957031V11.4312Z" fill="#500F0B"/>
<path d="M0.957031 7.61865H1.90703V8.5749H0.957031V7.61865Z" fill="#500F0B"/>
<path d="M0 8.57471H0.95625V11.431H0V8.57471Z" fill="#500F0B"/>
</g>
<defs>
<clipPath id="clip0_975_3349">
<rect width="20" height="20" fill="white"/>
</clipPath>
</defs>
</svg>
