<svg width="24" height="24" viewBox="0 0 24 24" fill="none" xmlns="http://www.w3.org/2000/svg">
<g clip-path="url(#clip0_630_1050)">
<path d="M16.5679 24H5.14575V22.8604H16.5679V24Z" fill="#500F0B"/>
<path d="M5.14575 22.8604H2.85767V21.7126H5.14502L5.14575 22.8604Z" fill="#500F0B"/>
<path d="M18.8552 22.8604H16.5679V21.7126H18.8552V22.8604Z" fill="#500F0B"/>
<path d="M2.85767 21.7126H1.71069V20.5723H2.85767V21.7126Z" fill="#500F0B"/>
<path d="M20.0029 21.7126H18.8552V20.5723H20.0029V21.7126Z" fill="#500F0B"/>
<path d="M1.71069 20.5723H0.570312V19.4326H1.71069V20.5723Z" fill="#500F0B"/>
<path d="M14.2878 20.5723H7.42505V19.4326H14.2878V20.5723Z" fill="#500F0B"/>
<path d="M21.1433 20.5723H20.0029V19.4326H21.1433V20.5723Z" fill="#500F0B"/>
<path d="M2.85767 19.4326H1.71069V18.2849H2.85767V19.4326Z" fill="#500F0B"/>
<path d="M7.42505 19.4326H5.14575V18.2849H7.42505V19.4326Z" fill="#500F0B"/>
<path d="M16.5679 19.4326H14.2878V18.2849H16.5679V19.4326Z" fill="#500F0B"/>
<path d="M20.0029 19.4326H18.8552V18.2849H20.0029V19.4326Z" fill="#500F0B"/>
<path d="M5.14575 18.2849H2.85767V17.1453H3.99805V15.9976H5.14502L5.14575 18.2849Z" fill="#500F0B"/>
<path d="M21.1433 17.1453H18.8552V18.2849H16.5679V17.1453H17.7156V15.9976H21.1433V17.1453Z" fill="#500F0B"/>
<path d="M3.99805 15.9976H2.85767V9.14282H3.99805V15.9976Z" fill="#500F0B"/>
<path d="M22.283 15.9976H21.1433V14.8572H22.283V15.9976Z" fill="#500F0B"/>
<path d="M20.0029 12.5698H18.8552V13.7175H20.0029V14.8572H17.7156V11.4302H20.0029V12.5698Z" fill="#500F0B"/>
<path d="M23.4307 14.8572H22.283V11.4302H23.4307V14.8572Z" fill="#500F0B"/>
<path d="M21.1433 13.7175H20.0029V12.5698H21.1433V13.7175Z" fill="#500F0B"/>
<path d="M15.4282 10.2898H16.5679V11.4302H15.4282V12.5698H6.2854V11.4302H5.14575V10.2898H6.2854V9.14282H15.4282V10.2898Z" fill="#500F0B"/>
<path d="M22.283 11.4302H21.1433V10.2898H22.283V11.4302Z" fill="#500F0B"/>
<path d="M21.1433 10.2898H17.7156V9.14282H21.1433V10.2898Z" fill="#500F0B"/>
<path d="M5.14502 9.14209L3.99805 9.14282V8.00244H5.14502V9.14209Z" fill="#500F0B"/>
<path d="M17.7156 9.14282L16.5679 9.14209V8.00244H17.7156V9.14282Z" fill="#500F0B"/>
<path d="M9.71313 8.00244H5.14502L5.14575 6.85474H9.71313V8.00244Z" fill="#500F0B"/>
<path d="M12.0005 8.00244H10.8528V5.71509H12.0005V8.00244Z" fill="#500F0B"/>
<path d="M16.5679 8.00244H13.1409V6.85474H16.5679V8.00244Z" fill="#500F0B"/>
<path d="M10.8528 5.71509H9.71313V4.57471H10.8528V5.71509Z" fill="#500F0B"/>
<path d="M9.71313 4.57471H8.57275V3.42773H9.71313V4.57471Z" fill="#500F0B"/>
<path d="M14.2878 4.57471H13.1409V3.42773H14.2878V4.57471Z" fill="#500F0B"/>
<path d="M8.57275 3.42773H7.42505V1.13965H8.57275V3.42773Z" fill="#500F0B"/>
<path d="M15.4275 3.42773H14.2878V1.13965H15.4275V3.42773Z" fill="#500F0B"/>
<path d="M12.0005 2.28735H10.8528V1.13965H12.0005V2.28735Z" fill="#500F0B"/>
<path d="M10.8528 1.13965H8.57275V0H10.8528V1.13965Z" fill="#500F0B"/>
<path d="M14.2878 1.13965H12.0005V0H14.2878V1.13965Z" fill="#500F0B"/>
</g>
<defs>
<clipPath id="clip0_630_1050">
<rect width="24" height="24" fill="white"/>
</clipPath>
</defs>
</svg>
