<svg width="24" height="24" viewBox="0 0 24 24" fill="none" xmlns="http://www.w3.org/2000/svg">
<g clip-path="url(#clip0_635_1085)">
<mask id="mask0_635_1085" style="mask-type:luminance" maskUnits="userSpaceOnUse" x="0" y="0" width="24" height="24">
<path d="M24 0H0V24H24V0Z" fill="white"/>
</mask>
<g mask="url(#mask0_635_1085)">
<path d="M16.5667 24H5.14453V22.8604H16.5667V24Z" fill="black"/>
<path d="M5.14745 22.8602H2.85938V21.7124H5.14672L5.14745 22.8602Z" fill="black"/>
<path d="M18.8537 22.8602H16.5664V21.7124H18.8537V22.8602Z" fill="black"/>
<path d="M2.85792 21.7126H1.71094V20.5723H2.85792V21.7126Z" fill="black"/>
<path d="M20.0032 21.7126H18.8555V20.5723H20.0032V21.7126Z" fill="black"/>
<path d="M1.71069 20.5723H0.570312V19.4326H1.71069V20.5723Z" fill="black"/>
<path d="M14.2885 20.5723H7.42578V19.4326H14.2885V20.5723Z" fill="black"/>
<path d="M21.1443 20.5723H20.0039V19.4326H21.1443V20.5723Z" fill="black"/>
<path d="M2.85792 19.4324H1.71094V18.2847H2.85792V19.4324Z" fill="black"/>
<path d="M7.42383 19.4324H5.14453V18.2847H7.42383V19.4324Z" fill="black"/>
<path d="M16.5692 19.4324H14.2891V18.2847H16.5692V19.4324Z" fill="black"/>
<path d="M20.0032 19.4324H18.8555V18.2847H20.0032V19.4324Z" fill="black"/>
<path d="M5.14745 18.2849H2.85938V17.1453H3.99975V15.9976H5.14672L5.14745 18.2849Z" fill="black"/>
<path d="M21.1418 17.1453H18.8537V18.2849H16.5664V17.1453H17.7141V15.9976H21.1418V17.1453Z" fill="black"/>
<path d="M3.99975 15.9974H2.85938V9.14258H3.99975V15.9974Z" fill="black"/>
<path d="M22.2842 15.9978H21.1445V14.8574H22.2842V15.9978Z" fill="black"/>
<path d="M20.0021 12.5698H18.8544V13.7175H20.0021V14.8572H17.7148V11.4302H20.0021V12.5698Z" fill="black"/>
<path d="M23.4289 14.8572H22.2812V11.4302H23.4289V14.8572Z" fill="black"/>
<path d="M21.1443 13.7175H20.0039V12.5698H21.1443V13.7175Z" fill="black"/>
<path d="M15.427 10.2896H16.5667V11.43H15.427V12.5696H6.28418V11.43H5.14453V10.2896H6.28418V9.14258H15.427V10.2896Z" fill="black"/>
<path d="M22.2842 11.4304H21.1445V10.29H22.2842V11.4304Z" fill="black"/>
<path d="M21.1425 10.2896H17.7148V9.14258H21.1425V10.2896Z" fill="black"/>
<path d="M5.14697 9.14209L4 9.14282V8.00244H5.14697V9.14209Z" fill="black"/>
<path d="M17.7141 9.14282L16.5664 9.14209V8.00244H17.7141V9.14282Z" fill="black"/>
<path d="M9.71264 8.00268H5.14453L5.14526 6.85498H9.71264V8.00268Z" fill="black"/>
<path d="M11.9993 8.00268H10.8516V5.71533H11.9993V8.00268Z" fill="black"/>
<path d="M16.5676 8.00268H13.1406V6.85498H16.5676V8.00268Z" fill="black"/>
<path d="M10.8545 5.71509H9.71484V4.57471H10.8545V5.71509Z" fill="black"/>
<path d="M9.7146 4.57471H8.57422V3.42773H9.7146V4.57471Z" fill="black"/>
<path d="M14.2875 4.57471H13.1406V3.42773H14.2875V4.57471Z" fill="black"/>
<path d="M8.57348 3.42773H7.42578V1.13965H8.57348V3.42773Z" fill="black"/>
<path d="M15.4288 3.42773H14.2891V1.13965H15.4288V3.42773Z" fill="black"/>
<path d="M11.9993 2.28735H10.8516V1.13965H11.9993V2.28735Z" fill="black"/>
<path d="M10.8543 1.13965H8.57422V0H10.8543V1.13965Z" fill="black"/>
<path d="M14.2873 1.13965H12V0H14.2873V1.13965Z" fill="black"/>
</g>
</g>
<defs>
<clipPath id="clip0_635_1085">
<rect width="24" height="24" fill="white"/>
</clipPath>
</defs>
</svg>
