<svg width="24" height="24" viewBox="0 0 24 24" fill="none" xmlns="http://www.w3.org/2000/svg">
<g clip-path="url(#clip0_646_996)">
<path fill-rule="evenodd" clip-rule="evenodd" d="M19.8 0H4.2V1.2H1.2V4.2H0V19.8H1.2V22.8H4.2V24H19.8V22.8H22.8V19.8H24V4.2H22.8V1.2H19.8V0ZM21.6 2.4H18.6V1.2H5.4V2.4H2.4V5.4H1.2V18.6H2.4V21.6H5.4V22.8H18.6V21.6H21.6V18.6H22.8V5.4H21.6V2.4Z" fill="#500F0B"/>
<path d="M5.0252 3.9002H8.4748V5.4002H9.2248V6.1502H10.2752V5.4002H12.375V6.6H11.4748V7.3502H8.0252V6.6H7.2752V5.0998H6.2248V10.3498H5.4748V12.1502H6.2248V13.2752H7.3499V14.4002H8.4748V15.5252H9.9748V22.875H8.7752V16.7248H7.2752V15.5998H6.1502V14.4748H5.0252V13.3498H4.2752V9.1502H5.0252V3.9002Z" fill="#500F0B"/>
<path d="M19.7249 3.9002H16.2752V5.4002H15.5252V6.1502H14.4748V5.4002H12.375L12 6L12.375 6.6H13.2752V7.3502H16.7249V6.6H17.4749V5.0998H18.5252V10.3498H19.2752V12.1502H18.5252V13.2752H17.4001V14.4002H16.2752V15.5252H14.7752V22.875H15.9748V16.7248H17.4749V15.5998H18.5999V14.4748H19.7249V13.3498H20.4749V9.1502H19.7249V3.9002Z" fill="#500F0B"/>
<path d="M6.2249 16.6502V18.5252H7.3499V19.6502H9.375V20.8498H6.1502V19.7248H4.8752V17.8498H4.5V16.6502H6.2249Z" fill="#500F0B"/>
</g>
<defs>
<clipPath id="clip0_646_996">
<rect width="24" height="24" fill="white"/>
</clipPath>
</defs>
</svg>
