<svg width="24" height="24" viewBox="0 0 24 24" fill="none" xmlns="http://www.w3.org/2000/svg">
<g clip-path="url(#clip0_630_1044)">
<path d="M14.8572 24H9.14209V22.8523H14.8572V24Z" fill="#500F0B"/>
<path d="M9.14209 22.8523H6.85474V21.7126H9.14209V22.8523Z" fill="#500F0B"/>
<path d="M17.1453 22.8523H14.8572L14.8579 21.7126H17.1453V22.8523Z" fill="#500F0B"/>
<path d="M6.85474 21.7126H4.57471V20.5649H6.85474V21.7126Z" fill="#500F0B"/>
<path d="M19.4326 21.7126H17.1453V20.5649H19.4326V21.7126Z" fill="#500F0B"/>
<path d="M4.57471 20.5649H3.42773V19.4253H4.57471V20.5649Z" fill="#500F0B"/>
<path d="M20.5723 20.5649H19.4326V19.4253H20.5723V20.5649Z" fill="#500F0B"/>
<path d="M3.42773 19.4253H2.28735V17.1372H3.42773V19.4253Z" fill="#500F0B"/>
<path d="M21.7126 19.4253H20.5723V17.1372H21.7126V19.4253Z" fill="#500F0B"/>
<path d="M14.8572 18.2849H10.2898V17.1372H14.8572V18.2849Z" fill="#500F0B"/>
<path d="M2.28735 17.1372H1.14771V14.8572H2.28735V17.1372Z" fill="#500F0B"/>
<path d="M10.2898 17.1372H9.14209V15.9976H10.2898V17.1372Z" fill="#500F0B"/>
<path d="M22.8596 17.1372H21.7126V14.8572H22.8596V17.1372Z" fill="#500F0B"/>
<path d="M1.14771 14.8572H0V9.14282H1.14771V14.8572Z" fill="#500F0B"/>
<path d="M24 14.8572H22.8596L22.8604 9.14282H24V14.8572Z" fill="#500F0B"/>
<path d="M2.28735 7.99512H21.7126V6.85474H22.8604V9.14282H21.7126V12.5698H20.5723V13.7102H15.9976V12.5698H14.8572V11.4229H13.7175V10.2825H11.4302V11.4229H10.2898V12.5698H9.14282V13.7102H4.57471V12.5698H3.42773V11.4229H2.28735V9.14282H1.14771V6.85474H2.28735V7.99512Z" fill="#500F0B"/>
<path d="M3.42773 6.85474H2.28735V4.56738H3.42773V6.85474Z" fill="#500F0B"/>
<path d="M21.7126 6.85474H20.5723V4.56738H21.7126V6.85474Z" fill="#500F0B"/>
<path d="M4.57471 4.56738H3.42773V3.42773H4.57471V4.56738Z" fill="#500F0B"/>
<path d="M20.5723 4.56738H19.4326V3.42773H20.5723V4.56738Z" fill="#500F0B"/>
<path d="M6.85474 3.42773H4.57471V2.28003H6.85474V3.42773Z" fill="#500F0B"/>
<path d="M19.4326 3.42773H17.1453V2.28003H19.4326V3.42773Z" fill="#500F0B"/>
<path d="M9.14209 2.28003H6.85474V1.13965H9.14209V2.28003Z" fill="#500F0B"/>
<path d="M17.1453 2.28003H14.8579V1.13965H17.1453V2.28003Z" fill="#500F0B"/>
<path d="M14.8579 1.13965H9.14209V0H14.8572L14.8579 1.13965Z" fill="#500F0B"/>
</g>
<defs>
<clipPath id="clip0_630_1044">
<rect width="24" height="24" fill="white"/>
</clipPath>
</defs>
</svg>
