<svg width="24" height="24" viewBox="0 0 24 24" fill="none" xmlns="http://www.w3.org/2000/svg">
<g clip-path="url(#clip0_635_1055)">
<mask id="mask0_635_1055" style="mask-type:luminance" maskUnits="userSpaceOnUse" x="0" y="0" width="24" height="24">
<path d="M24 0H0V24H24V0Z" fill="white"/>
</mask>
<g mask="url(#mask0_635_1055)">
<path d="M14.8557 24.0002H9.14062V22.8525H14.8557V24.0002Z" fill="black"/>
<path d="M9.14282 22.8521H6.85547V21.7124H9.14282V22.8521Z" fill="black"/>
<path d="M17.1436 22.8521H14.8555L14.8562 21.7124H17.1436V22.8521Z" fill="black"/>
<path d="M6.85425 21.7126H4.57422V20.5649H6.85425V21.7126Z" fill="black"/>
<path d="M19.4318 21.7126H17.1445V20.5649H19.4318V21.7126Z" fill="black"/>
<path d="M4.57276 20.5649H3.42578V19.4253H4.57276V20.5649Z" fill="black"/>
<path d="M20.5733 20.5649H19.4336V19.4253H20.5733V20.5649Z" fill="black"/>
<path d="M3.42944 19.4253H2.28906V17.1372H3.42944V19.4253Z" fill="black"/>
<path d="M21.7145 19.4253H20.5742V17.1372H21.7145V19.4253Z" fill="black"/>
<path d="M14.8565 18.2849H10.2891V17.1372H14.8565V18.2849Z" fill="black"/>
<path d="M2.28808 17.1374H1.14844V14.8574H2.28808V17.1374Z" fill="black"/>
<path d="M10.2883 17.1372H9.14062V15.9976H10.2883V17.1372Z" fill="black"/>
<path d="M22.8579 17.1374H21.7109V14.8574H22.8579V17.1374Z" fill="black"/>
<path d="M1.14771 14.857H0V9.14258H1.14771V14.857Z" fill="black"/>
<path d="M23.9998 14.857H22.8594L22.8602 9.14258H23.9998V14.857Z" fill="black"/>
<path d="M2.28808 7.99536H21.7133V6.85498H22.8611V9.14306H21.7133V12.57H20.573V13.7104H15.9983V12.57H14.8579V11.4231H13.7182V10.2827H11.4309V11.4231H10.2905V12.57H9.14355V13.7104H4.57544V12.57H3.42846V11.4231H2.28808V9.14306H1.14844V6.85498H2.28808V7.99536Z" fill="black"/>
<path d="M3.42944 6.85474H2.28906V4.56738H3.42944V6.85474Z" fill="black"/>
<path d="M21.7145 6.85474H20.5742V4.56738H21.7145V6.85474Z" fill="black"/>
<path d="M4.57276 4.56738H3.42578V3.42773H4.57276V4.56738Z" fill="black"/>
<path d="M20.5733 4.56738H19.4336V3.42773H20.5733V4.56738Z" fill="black"/>
<path d="M6.85425 3.42797H4.57422V2.28027H6.85425V3.42797Z" fill="black"/>
<path d="M19.4318 3.42797H17.1445V2.28027H19.4318V3.42797Z" fill="black"/>
<path d="M9.14282 2.28003H6.85547V1.13965H9.14282V2.28003Z" fill="black"/>
<path d="M17.1468 2.28003H14.8594V1.13965H17.1468V2.28003Z" fill="black"/>
<path d="M14.8564 1.13965H9.14062V0H14.8557L14.8564 1.13965Z" fill="black"/>
</g>
</g>
<defs>
<clipPath id="clip0_635_1055">
<rect width="24" height="24" fill="white"/>
</clipPath>
</defs>
</svg>
