<svg width="24" height="24" viewBox="0 0 24 24" fill="none" xmlns="http://www.w3.org/2000/svg">
<g clip-path="url(#clip0_630_989)">
<path d="M18.6 3.6H19.8L20.4 4.2V5.4L19.8 6H18.6L18 5.4V4.2L18.6 3.6Z" fill="#500F0B"/>
<path fill-rule="evenodd" clip-rule="evenodd" d="M7.8 6.6V5.4H16.2V6.6H17.4V7.8H18.6V16.2H17.4V17.4H16.2V18.6H7.8V17.4H6.6V16.2H5.4V7.8H6.6V6.6H7.8ZM15.6 8.4H14.4V7.2H9.6V8.4H8.4V9.6H7.2V14.4H8.4V15.6H9.6V16.8H14.4V15.6H15.6V14.4H16.8V9.6H15.6V8.4Z" fill="#500F0B"/>
<path fill-rule="evenodd" clip-rule="evenodd" d="M19.8 0H4.2V1.2H1.2V4.2H0V19.8H1.2V22.8H4.2V24H19.8V22.8H22.8V19.8H24V4.2H22.8V1.2H19.8V0ZM21.6 2.4H18.6V1.2H5.4V2.4H2.4V5.4H1.2V18.6H2.4V21.6H5.4V22.8H18.6V21.6H21.6V18.6H22.8V5.4H21.6V2.4Z" fill="#500F0B"/>
</g>
<defs>
<clipPath id="clip0_630_989">
<rect width="24" height="24" fill="white"/>
</clipPath>
</defs>
</svg>
