<svg width="24" height="24" viewBox="0 0 24 24" fill="none" xmlns="http://www.w3.org/2000/svg">
<g clip-path="url(#clip0_630_991)">
<path d="M7.88745 16.6897H5.6001V9.82764H7.88745V16.6897Z" fill="#500F0B"/>
<path d="M12.4622 10.9746H13.6025V9.82764H15.8899V10.9746H17.0303V12.115H18.1772V16.6897H15.8899V13.2627H14.7502V12.115H13.6025V13.2627H12.4622V16.6897H10.1748V9.82764H12.4622V10.9746Z" fill="#500F0B"/>
<path d="M7.88745 8.68726H5.6001V6.3999H7.88745V8.68726Z" fill="#500F0B"/>
<path fill-rule="evenodd" clip-rule="evenodd" d="M19.8003 0V1.19971H22.8003V4.19971H24V19.8003H22.8003V22.8003H19.8003V24H4.19971V22.8003H1.19971V19.8003H0V4.19971H1.19971V1.19971H4.19971V0H19.8003ZM5.40015 2.40015H2.40015V5.40015H1.19971V18.5999H2.40015V21.5999H5.40015V22.8003H18.5999V21.5999H21.5999V18.5999H22.8003V5.40015H21.5999V2.40015H18.5999V1.19971H5.40015V2.40015Z" fill="#500F0B"/>
</g>
<defs>
<clipPath id="clip0_630_991">
<rect width="24" height="24" fill="white"/>
</clipPath>
</defs>
</svg>
