<svg width="32" height="32" viewBox="0 0 32 32" fill="none" xmlns="http://www.w3.org/2000/svg">
<path d="M19.8096 32H12.1904V30.4697H19.8096V32ZM12.1904 30.4697H9.13965V28.9502H12.1904V30.4697ZM22.8604 30.4697H19.8096L19.8105 28.9502H22.8604V30.4697ZM9.13965 28.9502H6.09961V27.4199H9.13965V28.9502ZM25.9102 28.9502H22.8604V27.4199H25.9102V28.9502ZM6.09961 27.4199H4.57031V25.9004H6.09961V27.4199ZM27.4297 27.4199H25.9102V25.9004H27.4297V27.4199ZM4.57031 25.9004H3.0498V22.8496H4.57031V25.9004ZM28.9502 25.9004H27.4297V22.8496H28.9502V25.9004ZM3.0498 22.8496H1.53027V19.8096H3.0498V22.8496ZM30.4795 22.8496H28.9502V19.8096H30.4795V22.8496ZM23 21.417H24V22.5H8V21.417H9V20.333H23V21.417ZM1.53027 19.8096H0V12.1904H1.53027V19.8096ZM32 19.8096H30.4795L30.4805 12.1904H32V19.8096ZM23 16H24V17.083H8V16H9V14.917H23V16ZM3.0498 12.1904H1.53027V9.13965H3.0498V12.1904ZM30.4805 12.1904H28.9502V9.13965H30.4805V12.1904ZM23 10.583H24V11.667H8V10.583H9V9.5H23V10.583ZM4.57031 9.13965H3.0498V6.08984H4.57031V9.13965ZM28.9502 9.13965H27.4297V6.08984H28.9502V9.13965ZM6.09961 6.08984H4.57031V4.57031H6.09961V6.08984ZM27.4297 6.08984H25.9102V4.57031H27.4297V6.08984ZM9.13965 4.57031H6.09961V3.04004H9.13965V4.57031ZM25.9102 4.57031H22.8604V3.04004H25.9102V4.57031ZM12.1904 3.04004H9.13965V1.51953H12.1904V3.04004ZM22.8604 3.04004H19.8105V1.51953H22.8604V3.04004ZM19.8105 1.51953H12.1904V0H19.8096L19.8105 1.51953Z" fill="#500F0B"/>
</svg>
