<svg width="24" height="24" viewBox="0 0 24 24" fill="none" xmlns="http://www.w3.org/2000/svg">
<path d="M13.7102 18.2886H15.9976V19.429H14.8579V20.5686H13.7102V21.7163H12.5698V22.856H11.4302V21.7163H10.2825V20.5686H9.14282V19.429H7.99512V18.2886H10.2825V14.8616H13.7102V18.2886Z" fill="#500F0B"/>
<path d="M7.99512 17.1409H2.28735V16.0012H7.99512V17.1409Z" fill="#500F0B"/>
<path d="M20.5723 17.1409H15.9976V16.0012H20.5723V17.1409Z" fill="#500F0B"/>
<path d="M2.28735 16.0012H1.14038V14.8616H2.28735V16.0012Z" fill="#500F0B"/>
<path d="M21.7119 16.0012H20.5723V14.8616H21.7119V16.0012Z" fill="#500F0B"/>
<path d="M1.13965 14.8608H0V9.14648H1.13965V14.8608Z" fill="#500F0B"/>
<path d="M22.8523 14.8608H21.7126V13.7139H22.8523V14.8608Z" fill="#500F0B"/>
<path d="M24 13.7139H22.8523L22.853 9.14648H24V13.7139Z" fill="#500F0B"/>
<path d="M9.14282 10.2861H7.99512V9.14648H9.14282V10.2861Z" fill="#500F0B"/>
<path d="M2.28735 9.14648H1.13965L1.14038 7.99878H2.28735V9.14648Z" fill="#500F0B"/>
<path d="M7.99512 9.14648H6.85474V7.99878H7.99512V9.14648Z" fill="#500F0B"/>
<path d="M15.9976 9.14648H14.8579V7.99878H15.9976V9.14648Z" fill="#500F0B"/>
<path d="M22.853 9.14648H21.7126V7.99878H22.8523L22.853 9.14648Z" fill="#500F0B"/>
<path d="M6.85474 7.99878H2.28735V6.8584H5.71509V4.57104H6.85474V7.99878Z" fill="#500F0B"/>
<path d="M17.1372 7.99878H15.9976V6.8584H17.1372V7.99878Z" fill="#500F0B"/>
<path d="M21.7126 7.99878H20.5723V6.8584H21.7119L21.7126 7.99878Z" fill="#500F0B"/>
<path d="M18.2849 5.71875H20.5723V6.8584H17.1372L17.1379 4.57104H18.2849V5.71875Z" fill="#500F0B"/>
<path d="M7.99512 4.57104H6.85474V3.4314H7.99512V4.57104Z" fill="#500F0B"/>
<path d="M17.1379 4.57104H15.9976V3.4314H17.1372L17.1379 4.57104Z" fill="#500F0B"/>
<path d="M10.2825 3.4314H7.99512V2.28369H10.2825V3.4314Z" fill="#500F0B"/>
<path d="M15.9976 3.4314H13.7102V2.28369H15.9976V3.4314Z" fill="#500F0B"/>
<path d="M13.7102 2.28369H10.2825V1.14404H13.7102V2.28369Z" fill="#500F0B"/>
</svg>
