<svg width="24" height="24" viewBox="0 0 24 24" fill="none" xmlns="http://www.w3.org/2000/svg">
<g clip-path="url(#clip0_355_1779)">
<path fill-rule="evenodd" clip-rule="evenodd" d="M9.625 4.5V5.8125H10.5V7.125H11.375V8.4375H12.25V9.75H13.125V11.0625H14V9.75H14.875V8.4375H15.75V7.125H16.625V5.8125H17.5V4.5H19.25V5.8125H17.938V7.125H17.062V8.4375H16.188V9.75H15.312V11.0625H14V12.375H14.875V13.6875H15.75V15H16.625V16.3125H17.5V17.625H18.375V18.9375H19.25V20.25H14.875V18.9375H14V17.625H13.125V16.3125H12.25V15H11.375V13.6875H10.5V15H9.625V16.3125H8.75V17.625H7.875V18.9375H7V20.25H5.25V18.9375H6.562V17.625H7.438V16.3125H8.312V15H9.188V13.6875H10.5V12.375H9.625V11.0625H8.75V9.75H7.875V8.4375H7V7.125H6.125V5.8125H5.25V4.5H9.625ZM7.438 7.125H8.312V8.4375H9.188V9.75H10.062V11.0625H10.938V12.375H11.812V13.6875H12.688V15H13.562V16.3125H14.438V17.625H15.312V18.9375H17.062V17.625H16.188V16.3125H15.312V15H14.438V13.6875H13.562V12.375H12.688V11.0625H11.812V9.75H10.938V8.4375H10.062V7.125H9.188V5.8125H7.438V7.125Z" fill="#500F0B"/>
<path fill-rule="evenodd" clip-rule="evenodd" d="M19.8003 0V1.19971H22.8003V4.19971H24V19.8003H22.8003V22.8003H19.8003V24H4.19971V22.8003H1.19971V19.8003H0V4.19971H1.19971V1.19971H4.19971V0H19.8003ZM5.4002 2.4001H2.4002V5.4001H1.19971V18.5998H2.4002V21.5998H5.4002V22.8003H18.5998V21.5998H21.5998V18.5998H22.8003V5.4001H21.5998V2.4001H18.5998V1.19971H5.4002V2.4001Z" fill="#500F0B"/>
</g>
<defs>
<clipPath id="clip0_355_1779">
<rect width="24" height="24" fill="white"/>
</clipPath>
</defs>
</svg>
