<svg width="24" height="24" viewBox="0 0 24 24" fill="none" xmlns="http://www.w3.org/2000/svg">
<path fill-rule="evenodd" clip-rule="evenodd" d="M8.39844 1.2002H2.39844V3.0002H3.59844V4.8002H4.79844V6.60019H5.99844V8.40019H7.19844V10.2002H8.39844V12.0002H9.59844V13.8002H7.79844V15.6002H6.59844V17.4002H5.39844V19.2002H4.19844V21.0002H2.39844V22.8002H4.79844V21.0002H5.99844V19.2002H7.19844V17.4002H8.39844V15.6002H9.59844V13.8002H10.7984V15.6002H11.9984V17.4002H13.1984V19.2002H14.3984V21.0002H15.5984V22.8002H21.5984V21.0002H20.3984V19.2002H19.1984V17.4002H17.9984V15.6002H16.7984V13.8002H15.5984V12.0002H14.3984V10.2002H16.1984V8.40019H17.3984V6.60019H18.5984V4.8002H19.7984V3.0002H21.5984V1.2002H19.1984V3.0002H17.9984V4.8002H16.7984V6.60019H15.5984V8.40019H14.3984V10.2002H13.1984V8.40019H11.9984V6.60019H10.7984V4.8002H9.59844V3.0002H8.39844V1.2002ZM18.5984 19.2002H17.3984V17.4002H16.1984V15.6002H14.9984V13.8002H13.7984V12.0002H12.5984V10.2002H11.3984V8.40019H10.1984V6.60019H8.99844V4.8002H7.79844V3.0002H5.39844V4.8002H6.59844V6.60019H7.79844V8.40019H8.99844V10.2002H10.1984V12.0002H11.3984V13.8002H12.5984V15.6002H13.7984V17.4002H14.9984V19.2002H16.1984V21.0002H18.5984V19.2002Z" fill="#500F0B"/>
</svg>
