<svg width="32" height="32" viewBox="0 0 32 32" fill="none" xmlns="http://www.w3.org/2000/svg">
<path d="M8.84389 1.67135L17.762 9.2607L19.6609 7.02935L18.5416 6.07678L17.589 7.19612L9.79023 0.559326L8.84389 1.67135Z" fill="#500F0B"/>
<path d="M14.7437 10.5395L13.7974 11.6515L4.87938 4.06225L2.98052 6.29356L1.8685 5.34722L3.7674 3.11587L4.87938 4.06225L7.72453 0.718799L8.84389 1.67135L6.94497 3.90271L14.7437 10.5395Z" fill="#500F0B"/>
<path d="M11.8985 13.8829L10.9522 14.9949L4.26541 9.30442L2.36651 11.5358L1.25449 10.5894L3.15339 8.35809L2.03405 7.40553L2.98052 6.29356L11.8985 13.8829Z" fill="#500F0B"/>
<path d="M8.10071 18.3456L9.05327 17.2263L2.36651 11.5358L1.41396 12.6551L2.53329 13.6077L0.640625 15.8317L1.75264 16.7781L3.64531 14.554L8.10071 18.3456Z" fill="#500F0B"/>
<path fill-rule="evenodd" clip-rule="evenodd" d="M18.1382 26.8875L26.6801 16.85L24.4488 14.9511L25.3951 13.8391L23.1639 11.9403L24.1164 10.8209L26.3478 12.7198L25.3983 13.8355L27.6296 15.7343L28.579 14.6187L31.9224 17.4639L19.5889 31.9567L16.2455 29.1115L17.1919 27.9995L14.9606 26.1006L14.0142 27.2127L10.6709 24.3674L11.6172 23.2554L14.9606 26.1006L15.9069 24.9886L18.1382 26.8875ZM20.3696 28.7864L22.2654 26.5587L21.146 25.6061L19.2471 27.8375L20.3696 28.7864Z" fill="#500F0B"/>
<path d="M0.80009 17.8974L1.75264 16.7781L10.6709 24.3674L9.7182 25.4868L0.80009 17.8974Z" fill="#500F0B"/>
<path d="M15.2493 16.7343L16.1956 15.6223L18.4197 17.515L17.4733 18.627L15.2493 16.7343Z" fill="#500F0B"/>
<path d="M16.0288 13.5504L18.874 10.2071L17.762 9.2607L14.9168 12.6041L16.0288 13.5504L15.0763 14.6697L16.1956 15.6223L17.1482 14.503L16.0288 13.5504Z" fill="#500F0B"/>
<path d="M23.9506 8.7625L23.0043 9.87452L24.1164 10.8209L25.0626 9.70883L23.9506 8.7625L24.897 7.65053L23.785 6.70422L24.7375 5.58493L23.6182 4.63237L22.6656 5.75171L23.785 6.70422L22.8386 7.81622L23.9506 8.7625Z" fill="#500F0B"/>
<path d="M17.4296 5.13043L18.3759 4.01841L17.2639 3.07208L19.1628 0.840723L20.2748 1.78706L21.2211 0.675098L24.5645 3.52033L23.6182 4.63237L20.2748 1.78706L18.3759 4.01841L19.4879 4.96474L18.5416 6.07678L17.4296 5.13043Z" fill="#500F0B"/>
</svg>
