<svg width="24" height="24" viewBox="0 0 24 24" fill="none" xmlns="http://www.w3.org/2000/svg">
<g clip-path="url(#clip0_635_1125)">
<path d="M6.85767 21.7126H4.57031V19.4253H6.85767V21.7126Z" fill="black"/>
<path d="M19.4298 20.5723H13.7148V19.4253H19.4298V20.5723Z" fill="black"/>
<path fill-rule="evenodd" clip-rule="evenodd" d="M20.5691 15.9978H19.4294V17.1455H22.8564V24.0002H1.14453V17.1455H4.5752V15.9978H3.43188V14.8574H20.5691V15.9978ZM2.28418 22.8598H21.7168V18.2851H2.28418V22.8598ZM5.71191 17.1455H18.2817V15.9978H5.71191V17.1455Z" fill="black"/>
<path d="M3.43286 14.8572H2.28516V1.13965H3.43286V14.8572Z" fill="black"/>
<path d="M21.718 14.8572H20.5703V1.13965H21.718V14.8572Z" fill="black"/>
<path d="M13.713 10.2823H10.2852V9.14258H13.713V10.2823Z" fill="black"/>
<path d="M10.2876 9.14282L9.14062 9.14209V8.00244H10.2876V9.14282Z" fill="black"/>
<path d="M14.8544 9.14209L13.7148 9.14282V8.00244H14.8544V9.14209Z" fill="black"/>
<path d="M10.2876 6.85498H9.14062V5.71533H10.2876V6.85498Z" fill="black"/>
<path d="M14.8544 6.85498H13.7148V5.71533H14.8544V6.85498Z" fill="black"/>
<path fill-rule="evenodd" clip-rule="evenodd" d="M19.4321 13.7173H4.57422V2.28711H19.4321V13.7173ZM5.71093 12.5696H18.2807V3.42749H5.71093V12.5696Z" fill="black"/>
<path d="M20.5708 1.13965H3.43359V0H20.5708V1.13965Z" fill="black"/>
</g>
<defs>
<clipPath id="clip0_635_1125">
<rect width="24" height="24" fill="white"/>
</clipPath>
</defs>
</svg>
