<svg width="24" height="24" viewBox="0 0 24 24" fill="none" xmlns="http://www.w3.org/2000/svg">
<path d="M6.85889 21.7126H4.57153V19.4253H6.85889V21.7126Z" fill="#500F0B"/>
<path d="M19.4294 20.5723H13.7144V19.4253H19.4294V20.5723Z" fill="#500F0B"/>
<path fill-rule="evenodd" clip-rule="evenodd" d="M20.5691 15.9976H19.4294V17.1453H22.8564V24H1.14453V17.1453H4.5752V15.9976H3.43188V14.8572H20.5691V15.9976ZM2.28418 22.8596H21.7168V18.2849H2.28418V22.8596ZM5.71191 17.1453H18.2817V15.9976H5.71191V17.1453Z" fill="#500F0B"/>
<path d="M3.43188 14.8572H2.28418V1.13965H3.43188V14.8572Z" fill="#500F0B"/>
<path d="M21.7168 14.8572H20.5691V1.13965H21.7168V14.8572Z" fill="#500F0B"/>
<path d="M13.7144 10.2825H10.2866V9.14282H13.7144V10.2825Z" fill="#500F0B"/>
<path d="M10.2866 9.14282L9.13965 9.14209V8.00244H10.2866V9.14282Z" fill="#500F0B"/>
<path d="M14.854 9.14209L13.7144 9.14282V8.00244H14.854V9.14209Z" fill="#500F0B"/>
<path d="M10.2866 6.85474H9.13965V5.71509H10.2866V6.85474Z" fill="#500F0B"/>
<path d="M14.854 6.85474H13.7144V5.71509H14.854V6.85474Z" fill="#500F0B"/>
<path fill-rule="evenodd" clip-rule="evenodd" d="M19.4331 13.7175H4.5752V2.28735H19.4331V13.7175ZM5.71191 12.5698H18.2817V3.42773H5.71191V12.5698Z" fill="#500F0B"/>
<path d="M20.5691 1.13965H3.43188V0H20.5691V1.13965Z" fill="#500F0B"/>
</svg>
