<svg width="40" height="40" viewBox="0 0 40 40" fill="none" xmlns="http://www.w3.org/2000/svg">
<rect width="40" height="40" rx="12" fill="#500F0B"/>
<g clip-path="url(#clip0_783_3318)">
<path d="M23.8096 36H16.1895V34.4697H23.8096V36Z" fill="#FBF9F5"/>
<path d="M16.1895 34.4697H13.1396V32.9502H16.1895V34.4697Z" fill="#FBF9F5"/>
<path d="M26.8604 34.4697H23.8096L23.8105 32.9502H26.8604V34.4697Z" fill="#FBF9F5"/>
<path d="M13.1396 32.9502H10.0996V31.4199H13.1396V32.9502Z" fill="#FBF9F5"/>
<path d="M29.9102 32.9502H26.8604V31.4199H29.9102V32.9502Z" fill="#FBF9F5"/>
<path d="M10.0996 31.4199H8.57031V29.9004H10.0996V31.4199Z" fill="#FBF9F5"/>
<path d="M31.4297 31.4199H29.9102V29.9004H31.4297V31.4199Z" fill="#FBF9F5"/>
<path d="M8.57031 29.9004H7.0498V26.8496H8.57031V29.9004Z" fill="#FBF9F5"/>
<path d="M32.9502 29.9004H31.4297V26.8496H32.9502V29.9004Z" fill="#FBF9F5"/>
<path d="M23.8096 28.3799H17.7197V26.8496H23.8096V28.3799Z" fill="#FBF9F5"/>
<path d="M7.0498 26.8496H5.53027V23.8096H7.0498V26.8496Z" fill="#FBF9F5"/>
<path d="M17.7197 26.8496H16.1895V25.3301H17.7197V26.8496Z" fill="#FBF9F5"/>
<path d="M34.4795 26.8496H32.9502V23.8096H34.4795V26.8496Z" fill="#FBF9F5"/>
<path d="M5.53027 23.8096H4V16.1904H5.53027V23.8096Z" fill="#FBF9F5"/>
<path d="M36 23.8096H34.4795L34.4805 16.1904H36V23.8096Z" fill="#FBF9F5"/>
<path d="M7.0498 14.6602H32.9502V13.1396H34.4805V16.1904H32.9502V20.7598H31.4297V22.2803H25.3301V20.7598H23.8096V19.2305H22.29V17.71H19.2402V19.2305H17.7197V20.7598H16.1904V22.2803H10.0996V20.7598H8.57031V19.2305H7.0498V16.1904H5.53027V13.1396H7.0498V14.6602Z" fill="#FBF9F5"/>
<path d="M8.57031 13.1396H7.0498V10.0898H8.57031V13.1396Z" fill="#FBF9F5"/>
<path d="M32.9502 13.1396H31.4297V10.0898H32.9502V13.1396Z" fill="#FBF9F5"/>
<path d="M10.0996 10.0898H8.57031V8.57031H10.0996V10.0898Z" fill="#FBF9F5"/>
<path d="M31.4297 10.0898H29.9102V8.57031H31.4297V10.0898Z" fill="#FBF9F5"/>
<path d="M13.1396 8.57031H10.0996V7.04004H13.1396V8.57031Z" fill="#FBF9F5"/>
<path d="M29.9102 8.57031H26.8604V7.04004H29.9102V8.57031Z" fill="#FBF9F5"/>
<path d="M16.1895 7.04004H13.1396V5.51953H16.1895V7.04004Z" fill="#FBF9F5"/>
<path d="M26.8604 7.04004H23.8105V5.51953H26.8604V7.04004Z" fill="#FBF9F5"/>
<path d="M23.8105 5.51953H16.1895V4H23.8096L23.8105 5.51953Z" fill="#FBF9F5"/>
</g>
<defs>
<clipPath id="clip0_783_3318">
<rect width="32" height="32" fill="white" transform="translate(4 4)"/>
</clipPath>
</defs>
</svg>
