<svg width="32" height="32" viewBox="0 0 32 32" fill="none" xmlns="http://www.w3.org/2000/svg">
<g clip-path="url(#clip0_382_969)">
<path d="M22.0898 32H6.86035V30.4805H22.0898V32Z" fill="#500F0B"/>
<path d="M6.86035 30.4805H3.80957V28.9502H6.85938L6.86035 30.4805Z" fill="#500F0B"/>
<path d="M25.1396 30.4805H22.0898V28.9502H25.1396V30.4805Z" fill="#500F0B"/>
<path d="M3.80957 28.9502H2.28027V27.4297H3.80957V28.9502Z" fill="#500F0B"/>
<path d="M26.6699 28.9502H25.1396V27.4297H26.6699V28.9502Z" fill="#500F0B"/>
<path d="M2.28027 27.4297H0.759766V25.9102H2.28027V27.4297Z" fill="#500F0B"/>
<path d="M19.0498 27.4297H9.89941V25.9102H19.0498V27.4297Z" fill="#500F0B"/>
<path d="M28.1904 27.4297H26.6699V25.9102H28.1904V27.4297Z" fill="#500F0B"/>
<path d="M3.80957 25.9102H2.28027V24.3799H3.80957V25.9102Z" fill="#500F0B"/>
<path d="M9.89941 25.9102H6.86035V24.3799H9.89941V25.9102Z" fill="#500F0B"/>
<path d="M22.0898 25.9102H19.0498V24.3799H22.0898V25.9102Z" fill="#500F0B"/>
<path d="M26.6699 25.9102H25.1396V24.3799H26.6699V25.9102Z" fill="#500F0B"/>
<path d="M6.86035 24.3799H3.80957V22.8604H5.33008V21.3301H6.85938L6.86035 24.3799Z" fill="#500F0B"/>
<path d="M28.1904 22.8604H25.1396V24.3799H22.0898V22.8604H23.6201V21.3301H28.1904V22.8604Z" fill="#500F0B"/>
<path d="M5.33008 21.3301H3.80957V12.1904H5.33008V21.3301Z" fill="#500F0B"/>
<path d="M29.71 21.3301H28.1904V19.8096H29.71V21.3301Z" fill="#500F0B"/>
<path d="M26.6699 16.7598H25.1396V18.29H26.6699V19.8096H23.6201V15.2402H26.6699V16.7598Z" fill="#500F0B"/>
<path d="M31.2402 19.8096H29.71V15.2402H31.2402V19.8096Z" fill="#500F0B"/>
<path d="M28.1904 18.29H26.6699V16.7598H28.1904V18.29Z" fill="#500F0B"/>
<path d="M20.5703 13.7197H22.0898V15.2402H20.5703V16.7598H8.37988V15.2402H6.86035V13.7197H8.37988V12.1904H20.5703V13.7197Z" fill="#500F0B"/>
<path d="M29.71 15.2402H28.1904V13.7197H29.71V15.2402Z" fill="#500F0B"/>
<path d="M28.1904 13.7197H23.6201V12.1904H28.1904V13.7197Z" fill="#500F0B"/>
<path d="M6.85938 12.1895L5.33008 12.1904V10.6699H6.85938V12.1895Z" fill="#500F0B"/>
<path d="M23.6201 12.1904L22.0898 12.1895V10.6699H23.6201V12.1904Z" fill="#500F0B"/>
<path d="M12.9502 10.6699H6.85938L6.86035 9.13965H12.9502V10.6699Z" fill="#500F0B"/>
<path d="M16 10.6699H14.4697V7.62012H16V10.6699Z" fill="#500F0B"/>
<path d="M22.0898 10.6699H17.5205V9.13965H22.0898V10.6699Z" fill="#500F0B"/>
<path d="M14.4697 7.62012H12.9502V6.09961H14.4697V7.62012Z" fill="#500F0B"/>
<path d="M12.9502 6.09961H11.4297V4.57031H12.9502V6.09961Z" fill="#500F0B"/>
<path d="M19.0498 6.09961H17.5205V4.57031H19.0498V6.09961Z" fill="#500F0B"/>
<path d="M11.4297 4.57031H9.89941V1.51953H11.4297V4.57031Z" fill="#500F0B"/>
<path d="M20.5693 4.57031H19.0498V1.51953H20.5693V4.57031Z" fill="#500F0B"/>
<path d="M16 3.0498H14.4697V1.51953H16V3.0498Z" fill="#500F0B"/>
<path d="M14.4697 1.51953H11.4297V0H14.4697V1.51953Z" fill="#500F0B"/>
<path d="M19.0498 1.51953H16V0H19.0498V1.51953Z" fill="#500F0B"/>
</g>
<defs>
<clipPath id="clip0_382_969">
<rect width="32" height="32" fill="white"/>
</clipPath>
</defs>
</svg>
