<svg width="32" height="32" viewBox="0 0 32 32" fill="none" xmlns="http://www.w3.org/2000/svg">
<g clip-path="url(#clip0_382_965)">
<path d="M19.8096 32H12.1895V30.4697H19.8096V32Z" fill="#500F0B"/>
<path d="M12.1895 30.4697H9.13965V28.9502H12.1895V30.4697Z" fill="#500F0B"/>
<path d="M22.8604 30.4697H19.8096L19.8105 28.9502H22.8604V30.4697Z" fill="#500F0B"/>
<path d="M9.13965 28.9502H6.09961V27.4199H9.13965V28.9502Z" fill="#500F0B"/>
<path d="M25.9102 28.9502H22.8604V27.4199H25.9102V28.9502Z" fill="#500F0B"/>
<path d="M6.09961 27.4199H4.57031V25.9004H6.09961V27.4199Z" fill="#500F0B"/>
<path d="M27.4297 27.4199H25.9102V25.9004H27.4297V27.4199Z" fill="#500F0B"/>
<path d="M4.57031 25.9004H3.0498V22.8496H4.57031V25.9004Z" fill="#500F0B"/>
<path d="M28.9502 25.9004H27.4297V22.8496H28.9502V25.9004Z" fill="#500F0B"/>
<path d="M19.8096 24.3799H13.7197V22.8496H19.8096V24.3799Z" fill="#500F0B"/>
<path d="M3.0498 22.8496H1.53027V19.8096H3.0498V22.8496Z" fill="#500F0B"/>
<path d="M13.7197 22.8496H12.1895V21.3301H13.7197V22.8496Z" fill="#500F0B"/>
<path d="M30.4795 22.8496H28.9502V19.8096H30.4795V22.8496Z" fill="#500F0B"/>
<path d="M1.53027 19.8096H0V12.1904H1.53027V19.8096Z" fill="#500F0B"/>
<path d="M32 19.8096H30.4795L30.4805 12.1904H32V19.8096Z" fill="#500F0B"/>
<path d="M3.0498 10.6602H28.9502V9.13965H30.4805V12.1904H28.9502V16.7598H27.4297V18.2803H21.3301V16.7598H19.8096V15.2305H18.29V13.71H15.2402V15.2305H13.7197V16.7598H12.1904V18.2803H6.09961V16.7598H4.57031V15.2305H3.0498V12.1904H1.53027V9.13965H3.0498V10.6602Z" fill="#500F0B"/>
<path d="M4.57031 9.13965H3.0498V6.08984H4.57031V9.13965Z" fill="#500F0B"/>
<path d="M28.9502 9.13965H27.4297V6.08984H28.9502V9.13965Z" fill="#500F0B"/>
<path d="M6.09961 6.08984H4.57031V4.57031H6.09961V6.08984Z" fill="#500F0B"/>
<path d="M27.4297 6.08984H25.9102V4.57031H27.4297V6.08984Z" fill="#500F0B"/>
<path d="M9.13965 4.57031H6.09961V3.04004H9.13965V4.57031Z" fill="#500F0B"/>
<path d="M25.9102 4.57031H22.8604V3.04004H25.9102V4.57031Z" fill="#500F0B"/>
<path d="M12.1895 3.04004H9.13965V1.51953H12.1895V3.04004Z" fill="#500F0B"/>
<path d="M22.8604 3.04004H19.8105V1.51953H22.8604V3.04004Z" fill="#500F0B"/>
<path d="M19.8105 1.51953H12.1895V0H19.8096L19.8105 1.51953Z" fill="#500F0B"/>
</g>
<defs>
<clipPath id="clip0_382_965">
<rect width="32" height="32" fill="white"/>
</clipPath>
</defs>
</svg>
