<svg width="32" height="32" viewBox="0 0 32 32" fill="none" xmlns="http://www.w3.org/2000/svg">
<g clip-path="url(#clip0_382_967)">
<path d="M19.8096 32H12.2002V30.4805H19.8096V32Z" fill="#500F0B"/>
<path d="M12.2002 30.4805L9.15039 30.4795V28.96H12.2002V30.4805Z" fill="#500F0B"/>
<path d="M22.8604 30.4795H19.8105V28.96H22.8604V30.4795Z" fill="#500F0B"/>
<path d="M9.15039 28.96H6.09961V27.4297H7.62012V25.9102H9.15039V28.96Z" fill="#500F0B"/>
<path d="M25.9102 28.96H22.8604V27.4297H25.9102V28.96Z" fill="#500F0B"/>
<path d="M6.09961 27.4297H4.58008V25.9102H6.09961V27.4297Z" fill="#500F0B"/>
<path d="M27.4297 27.4297H25.9102V25.9102H27.4297V27.4297Z" fill="#500F0B"/>
<path d="M6.09961 24.3799H4.58008V25.9102H3.0498V22.8604H6.09961V24.3799Z" fill="#500F0B"/>
<path d="M10.6699 25.9102H9.15039V24.3799H10.6699V25.9102Z" fill="#500F0B"/>
<path d="M28.96 25.9102H27.4297L27.4307 22.8604H28.96V25.9102Z" fill="#500F0B"/>
<path d="M12.2002 24.3799H10.6699V22.8604H12.2002V24.3799Z" fill="#500F0B"/>
<path d="M19.8096 21.3398H21.3398V22.8604H19.8096V24.3799H18.29V22.8604H16.7695V21.3398H18.29V19.8096H19.8096V21.3398Z" fill="#500F0B"/>
<path d="M3.0498 22.8604H1.53027V19.8096H3.0498V22.8604Z" fill="#500F0B"/>
<path d="M7.62012 22.8604H6.09961V21.3398H7.62012V22.8604Z" fill="#500F0B"/>
<path d="M13.7197 22.8604H12.2002V21.3398H13.7197V22.8604Z" fill="#500F0B"/>
<path d="M24.3896 22.8604H22.8604V21.3398H24.3896V22.8604Z" fill="#500F0B"/>
<path d="M30.4805 22.8604H28.96V19.8096H30.4805V22.8604Z" fill="#500F0B"/>
<path d="M9.14941 21.3398H7.62012V19.8096H9.14941V21.3398Z" fill="#500F0B"/>
<path d="M15.2402 21.3398H13.7197V19.8096H15.2402V21.3398Z" fill="#500F0B"/>
<path d="M1.53027 19.8096H0V12.1904H1.53027V19.8096Z" fill="#500F0B"/>
<path d="M10.6699 19.8096H9.14941L9.15039 18.29H10.6699V19.8096Z" fill="#500F0B"/>
<path d="M19.8096 10.6699H21.3398V12.1904H22.8604V13.7197H21.3398V15.2402H19.8096V16.7695H18.29V18.29H16.7695V19.8096H15.2402V18.29H13.7197V16.7695H12.2002V15.2402H13.7197V13.7197H15.2402V12.1904H16.7695V10.6699H18.29V9.15039H19.8096V10.6699Z" fill="#500F0B"/>
<path d="M27.4297 16.7705H28.96V18.29H27.4297V19.8096H25.9102V18.29H24.3896V16.7705H25.9102V15.2402H27.4297V16.7705Z" fill="#500F0B"/>
<path d="M32 19.8096H30.4805V12.1904H32V19.8096Z" fill="#500F0B"/>
<path d="M12.2002 18.29H10.6699V16.7695H12.2002V18.29Z" fill="#500F0B"/>
<path d="M7.62012 10.6699H9.15039V12.1904H7.62012V13.7197H6.09961V12.1904H4.58008V10.6699H6.09961V9.15039H7.62012V10.6699Z" fill="#500F0B"/>
<path d="M3.0498 12.1904H1.53027V9.15039H3.0498V12.1904Z" fill="#500F0B"/>
<path d="M30.4805 12.1904H28.96V9.15039H30.4805V12.1904Z" fill="#500F0B"/>
<path d="M25.9102 12.1895H24.3896V10.6699H25.9102V12.1895Z" fill="#500F0B"/>
<path d="M12.2002 10.6699H10.6699V9.15039H12.2002V10.6699Z" fill="#500F0B"/>
<path d="M4.58008 9.15039H3.0498V6.09961H4.58008V9.15039Z" fill="#500F0B"/>
<path d="M28.96 9.15039H27.4307V6.09961H28.96V9.15039Z" fill="#500F0B"/>
<path d="M15.2402 4.58008H16.7695V6.09961H15.2402V7.62012H13.7197V6.09961H12.2002V4.58008H13.7197V3.0498H15.2402V4.58008Z" fill="#500F0B"/>
<path d="M22.8594 7.62012H21.3398V6.09961H22.8594V7.62012Z" fill="#500F0B"/>
<path d="M6.09961 6.09961H4.58008V4.58008H6.09961V6.09961Z" fill="#500F0B"/>
<path d="M27.4307 6.09961H25.9102V4.58008H27.4297L27.4307 6.09961Z" fill="#500F0B"/>
<path d="M9.15039 4.58008H6.09961V3.0498H9.15039V4.58008Z" fill="#500F0B"/>
<path d="M25.9102 4.58008H22.8604V3.0498H25.9102V4.58008Z" fill="#500F0B"/>
<path d="M12.2002 3.0498H9.15039V1.53027H12.2002V3.0498Z" fill="#500F0B"/>
<path d="M22.8604 3.0498H19.8105V1.53027H22.8604V3.0498Z" fill="#500F0B"/>
<path d="M19.8105 1.53027H12.2002V0H19.8096L19.8105 1.53027Z" fill="#500F0B"/>
</g>
<defs>
<clipPath id="clip0_382_967">
<rect width="32" height="32" fill="white"/>
</clipPath>
</defs>
</svg>
