<svg width="32" height="32" viewBox="0 0 32 32" fill="none" xmlns="http://www.w3.org/2000/svg">
<path d="M9.14453 28.9502H6.09473V25.9004H9.14453V28.9502Z" fill="#500F0B"/>
<path d="M25.9053 27.4297H18.2852V25.9004H25.9053V27.4297Z" fill="#500F0B"/>
<path fill-rule="evenodd" clip-rule="evenodd" d="M27.4248 21.3301H25.9053V22.8604H30.4746V32H1.52539V22.8604H6.09961V21.3301H4.5752V19.8096H27.4248V21.3301ZM3.04492 30.4795H28.9551V24.3799H3.04492V30.4795ZM7.61523 22.8604H24.375V21.3301H7.61523V22.8604Z" fill="#500F0B"/>
<path d="M4.5752 19.8096H3.04492V1.51953H4.5752V19.8096Z" fill="#500F0B"/>
<path d="M28.9551 19.8096H27.4248V1.51953H28.9551V19.8096Z" fill="#500F0B"/>
<path d="M18.2852 13.71H13.7148V12.1904H18.2852V13.71Z" fill="#500F0B"/>
<path d="M13.7148 12.1904L12.1855 12.1895V10.6699H13.7148V12.1904Z" fill="#500F0B"/>
<path d="M19.8047 12.1895L18.2852 12.1904V10.6699H19.8047V12.1895Z" fill="#500F0B"/>
<path d="M13.7148 9.13965H12.1855V7.62012H13.7148V9.13965Z" fill="#500F0B"/>
<path d="M19.8047 9.13965H18.2852V7.62012H19.8047V9.13965Z" fill="#500F0B"/>
<path fill-rule="evenodd" clip-rule="evenodd" d="M25.9102 18.29H6.09961V3.0498H25.9102V18.29ZM7.61523 16.7598H24.375V4.57031H7.61523V16.7598Z" fill="#500F0B"/>
<path d="M27.4248 1.51953H4.5752V0H27.4248V1.51953Z" fill="#500F0B"/>
</svg>
