<svg width="44" height="44" viewBox="0 0 44 44" fill="none" xmlns="http://www.w3.org/2000/svg">
<g clip-path="url(#clip0_882_4685)">
<rect width="44" height="44" fill="#F8F8F4"/>
<path d="M38.5531 12.3265H38.234C36.5546 12.3239 35.1917 13.684 35.1917 15.3631V22.1543C35.1917 23.5105 34.0708 24.609 32.7367 24.609C31.9441 24.609 31.1528 24.2101 30.6832 23.5406L23.7472 13.6343C23.1717 12.8117 22.2353 12.3213 21.2216 12.3213C19.6403 12.3213 18.2173 13.6657 18.2173 15.3252V22.1556C18.2173 23.5118 17.1055 24.6103 15.7623 24.6103C14.9671 24.6103 14.177 24.2114 13.7075 23.5419L5.94621 12.456C5.77094 12.2049 5.37726 12.3292 5.37726 12.6352V18.558C5.37726 18.8575 5.46882 19.1478 5.64014 19.3936L13.2785 30.3017C13.7297 30.9464 14.3955 31.4251 15.1632 31.599C17.0846 32.0358 18.8529 30.5567 18.8529 28.6722V21.8457C18.8529 20.4896 19.9516 19.391 21.3079 19.391H21.3118C22.1293 19.391 22.8957 19.7899 23.3653 20.4595L30.3026 30.3645C30.8794 31.1884 31.7675 31.6775 32.8269 31.6775C34.4436 31.6775 35.8287 30.3318 35.8287 28.6735V21.8444C35.8287 20.4883 36.9273 19.3897 38.2836 19.3897H38.5544C38.7244 19.3897 38.8618 19.2524 38.8618 19.0824V12.6338C38.8618 12.4639 38.7244 12.3265 38.5544 12.3265H38.5531Z" fill="#0B100F"/>
</g>
<defs>
<clipPath id="clip0_882_4685">
<rect width="44" height="44" fill="white"/>
</clipPath>
</defs>
</svg>
