<svg width="44" height="44" viewBox="0 0 44 44" fill="none" xmlns="http://www.w3.org/2000/svg">
<g clip-path="url(#clip0_882_4688)">
<rect width="44" height="44" fill="black"/>
<path d="M13 12.7143C13 10.1107 15.1107 8 17.7143 8H22.4286V17.4286H17.7143C15.1107 17.4286 13 15.3179 13 12.7143Z" fill="#F24E1E"/>
<path d="M13 22.143C13 19.5394 15.1107 17.4287 17.7143 17.4287H22.4286V26.8573H17.7143C15.1107 26.8573 13 24.7466 13 22.143Z" fill="#A259FF"/>
<path d="M13 31.5715C13 28.9678 15.1107 26.8572 17.7143 26.8572H22.4286V31.5715C22.4286 34.1751 20.3179 36.2857 17.7143 36.2857C15.1107 36.2857 13 34.1751 13 31.5715Z" fill="#0ACF83"/>
<path d="M22.4297 8H27.144C29.7476 8 31.8583 10.1107 31.8583 12.7143C31.8583 15.3179 29.7476 17.4286 27.144 17.4286H22.4297V8Z" fill="#FF7262"/>
<path d="M22.4297 22.143C22.4297 19.5394 24.5403 17.4287 27.144 17.4287C29.7476 17.4287 31.8583 19.5394 31.8583 22.143C31.8583 24.7466 29.7476 26.8573 27.144 26.8573C24.5403 26.8573 22.4297 24.7466 22.4297 22.143Z" fill="#1ABCFE"/>
</g>
<defs>
<clipPath id="clip0_882_4688">
<rect width="44" height="44" fill="white"/>
</clipPath>
</defs>
</svg>
