<svg width="44" height="44" viewBox="0 0 44 44" fill="none" xmlns="http://www.w3.org/2000/svg">
<g clip-path="url(#clip0_882_4696)">
<rect width="44" height="44" fill="black"/>
<circle cx="22" cy="22" r="18" fill="white"/>
<path d="M11 19.381C11 16.4473 11 14.9805 11.5709 13.86C12.0731 12.8744 12.8744 12.0731 13.86 11.5709C14.9805 11 16.4473 11 19.381 11H24.619C27.5527 11 29.0195 11 30.1399 11.5709C31.1256 12.0731 31.9269 12.8744 32.4291 13.86C33 14.9805 33 16.4473 33 19.381V24.619C33 27.5527 33 29.0195 32.4291 30.1399C31.9269 31.1256 31.1256 31.9269 30.1399 32.4291C29.0195 33 27.5527 33 24.619 33H19.381C16.4473 33 14.9805 33 13.86 32.4291C12.8744 31.9269 12.0731 31.1256 11.5709 30.1399C11 29.0195 11 27.5527 11 24.619V19.381Z" fill="black"/>
</g>
<defs>
<clipPath id="clip0_882_4696">
<rect width="44" height="44" fill="white"/>
</clipPath>
</defs>
</svg>
