<svg width="44" height="44" viewBox="0 0 44 44" fill="none" xmlns="http://www.w3.org/2000/svg">
<g clip-path="url(#clip0_882_4700)">
<rect width="44" height="44" fill="#2E2E2E"/>
<path d="M14.7205 26.13C14.7282 26.5866 14.8739 27.4746 15.0924 28.1679C15.5645 29.6614 16.357 31.0338 17.4147 32.1891C18.5486 33.4364 19.9326 34.4307 21.4765 35.1074C23.1609 35.8423 24.9793 36.2199 26.817 36.2161C28.6547 36.2124 30.4716 35.8275 32.153 35.0857C33.6968 34.4023 35.0805 33.4032 36.2148 32.1527C37.271 30.9935 38.0631 29.6189 38.5364 28.1238C38.7662 27.393 38.9128 26.6387 38.9734 25.875C39.0313 25.13 39.0078 24.3809 38.9034 23.641C38.6984 22.2014 38.1938 20.8207 37.4222 19.5882C36.7067 18.442 35.7916 17.4332 34.7203 16.6098L23.7841 8.21571C23.7743 8.20801 23.7659 8.20031 23.7554 8.1933C23.0383 7.64285 21.8316 7.64495 21.043 8.1933C20.2545 8.74165 20.1543 9.67378 20.8638 10.2565L25.4236 13.9682L11.525 13.9829H11.5061C10.3547 13.9871 9.25242 14.7406 9.03182 15.6952C8.80702 16.6658 9.58717 17.4712 10.7826 17.4754V17.4796L17.8279 17.4663L5.25358 27.1104L5.20526 27.1461C4.01961 28.0572 3.63584 29.5671 4.38308 30.5231C5.14083 31.4944 6.75297 31.4965 7.95472 30.5287L14.8179 24.9135C14.7622 25.3168 14.7297 25.7229 14.7205 26.13ZM32.3504 28.6651C30.9372 30.105 28.9581 30.9216 26.8179 30.9258C24.6777 30.93 22.6937 30.1204 21.2805 28.6847C20.6123 28.0141 20.0968 27.2072 19.7692 26.319C19.4603 25.4743 19.3408 24.572 19.419 23.676C19.4938 22.8016 19.7523 21.9528 20.1774 21.185C20.6045 20.4171 21.1751 19.7383 21.8582 19.1856C23.2323 18.065 24.9817 17.4593 26.8116 17.4572C28.6415 17.4551 30.3916 18.0552 31.7671 19.1716C32.4502 19.7218 33.0208 20.3985 33.4479 21.1647C33.8731 21.9313 34.1323 22.7788 34.2084 23.6522C34.2862 24.5478 34.1666 25.4495 33.8582 26.2938C33.5315 27.1832 33.0173 27.992 32.3504 28.6651Z" fill="#EA7600"/>
<path d="M32.3505 28.6652C30.9372 30.1051 28.9581 30.9217 26.8179 30.9259C24.6777 30.9301 22.6937 30.1205 21.2805 28.6848C20.6124 28.0142 20.0968 27.2073 19.7692 26.3192C19.4603 25.4744 19.3408 24.5722 19.419 23.6761C19.4939 22.8017 19.7523 21.9529 20.1775 21.1851C20.6046 20.4172 21.1752 19.7384 21.8583 19.1857C23.2323 18.0652 24.9817 17.4594 26.8116 17.4573C28.6416 17.4552 30.3917 18.0554 31.7671 19.1717C32.4502 19.7219 33.0208 20.3986 33.4479 21.1648C33.8732 21.9314 34.1323 22.779 34.2084 23.6523C34.2862 24.5479 34.1667 25.4496 33.8583 26.2939C33.5315 27.1834 33.0173 27.9921 32.3505 28.6652Z" fill="white"/>
<path d="M22.2404 23.7677C22.3055 22.6003 22.8777 21.5715 23.7398 20.8425C24.6494 20.0966 25.7894 19.689 26.9658 19.689C28.1422 19.689 29.2822 20.0966 30.1918 20.8425C31.0532 21.5715 31.6254 22.6003 31.6912 23.7663C31.7563 24.966 31.271 26.0774 30.4306 26.9059C29.5685 27.7463 28.3416 28.2736 26.9682 28.2736C25.5949 28.2736 24.3658 27.7463 23.5037 26.9059C22.655 26.0802 22.1745 24.966 22.2404 23.7677Z" fill="#265787"/>
</g>
<defs>
<clipPath id="clip0_882_4700">
<rect width="44" height="44" fill="white"/>
</clipPath>
</defs>
</svg>
