<svg width="44" height="44" viewBox="0 0 44 44" fill="none" xmlns="http://www.w3.org/2000/svg">
<g clip-path="url(#clip0_882_4705)">
<rect width="44" height="44" fill="#FCFCFF"/>
<path fill-rule="evenodd" clip-rule="evenodd" d="M22.9742 36.1099C22.9742 36.6022 23.3719 36.9999 23.8642 36.9999H36.1352C36.6276 36.9999 37.028 36.5995 36.9955 36.1099C36.5545 29.06 30.9141 23.4169 23.8642 22.9786C23.3746 22.9489 22.9742 23.3492 22.9742 23.8389V36.1099Z" fill="#254078"/>
<path fill-rule="evenodd" clip-rule="evenodd" d="M21.0232 23.8661C21.0232 23.3737 20.6255 22.9761 20.1331 22.9761H7.86211C7.36976 22.9761 6.96938 23.3765 7.00184 23.8661C7.4428 30.916 13.0832 36.5591 20.1331 36.9974C20.6228 37.0271 21.0232 36.6268 21.0232 36.1371V23.8661Z" fill="#254078"/>
<path fill-rule="evenodd" clip-rule="evenodd" d="M21.0232 20.1355C21.0232 20.6279 20.6255 21.0256 20.1331 21.0256H7.86211C7.36976 21.0256 6.96938 20.6252 7.00184 20.1355C7.44009 13.0857 13.0832 7.44251 20.1331 7.00156C20.6228 6.9718 21.0232 7.37218 21.0232 7.86183V20.1328V20.1355Z" fill="#FF62FD"/>
<path fill-rule="evenodd" clip-rule="evenodd" d="M22.9742 7.89174C22.9742 7.39938 23.3719 7.00171 23.8642 7.00171H36.1352C36.6276 7.00171 37.028 7.40209 36.9955 7.89174C36.5545 14.9416 30.9141 20.5848 23.8642 21.023C23.3746 21.0528 22.9742 20.6524 22.9742 20.1627V7.89174Z" fill="#0078FF"/>
</g>
<defs>
<clipPath id="clip0_882_4705">
<rect width="44" height="44" fill="white"/>
</clipPath>
</defs>
</svg>
